<?xml version="1.0" standalone="no"?>
<!DOCTYPE svg PUBLIC "-//W3C//DTD SVG 20010904//EN"
 "http://www.w3.org/TR/2001/REC-SVG-20010904/DTD/svg10.dtd">
<svg version="1.0" xmlns="http://www.w3.org/2000/svg"
 width="1239.000000pt" height="1280.000000pt" viewBox="0 0 1239.000000 1280.000000"
 preserveAspectRatio="xMidYMid meet">
<metadata>
Created by potrace 1.15, written by Peter Selinger 2001-2017
</metadata>
<g transform="translate(0.000000,1280.000000) scale(0.100000,-0.100000)"
fill="#ebcf76" stroke="none">
<path d="M8425 12779 c-38 -11 -356 -91 -705 -180 -349 -88 -738 -187 -865
-219 -126 -32 -410 -104 -630 -160 -220 -56 -401 -103 -403 -105 -2 -2 21
-117 52 -256 55 -258 97 -460 251 -1214 103 -506 174 -825 260 -1165 322
-1285 760 -2216 1446 -3070 214 -267 508 -584 723 -780 l127 -115 86 -170
c521 -1030 960 -2313 1112 -3250 43 -265 54 -389 54 -590 -1 -253 -33 -394
-108 -467 -38 -38 -187 -119 -545 -298 -380 -189 -447 -229 -531 -310 -97 -95
-97 -103 -14 -273 l67 -135 96 -9 c159 -13 531 -8 712 11 223 23 526 67 810
117 201 36 261 51 415 104 415 145 711 267 1005 415 172 87 522 280 543 299
11 10 -52 310 -74 354 -23 44 -86 92 -143 109 -68 21 -316 14 -576 -15 -345
-39 -536 -57 -619 -57 -63 0 -81 4 -132 31 -154 83 -329 335 -494 714 -373
854 -703 2364 -786 3600 l-12 180 36 125 c142 501 217 1047 217 1590 0 833
-148 1681 -481 2760 -96 309 -148 466 -371 1115 -241 702 -299 877 -377 1139
-31 104 -61 191 -66 192 -6 1 -41 -7 -80 -17z"/>
<path d="M2885 11392 c-147 -444 -290 -877 -317 -962 -300 -941 -436 -1573
-489 -2271 -15 -206 -6 -821 15 -1019 48 -447 133 -866 258 -1280 l50 -165
-12 -195 c-77 -1295 -406 -2739 -786 -3459 -102 -192 -223 -341 -308 -376 -50
-21 -195 -19 -616 7 -394 24 -509 20 -594 -22 -60 -29 -72 -59 -80 -206 l-6
-121 29 -21 c228 -168 515 -316 942 -485 509 -202 588 -225 1034 -297 395 -63
608 -82 969 -84 l279 -1 48 140 c27 77 48 151 49 165 1 100 -76 186 -245 272
-60 31 -193 93 -295 138 -332 147 -494 223 -529 248 -154 113 -187 512 -90
1097 139 839 506 1946 957 2890 l95 200 153 152 c248 249 437 481 639 783 459
688 784 1492 1035 2560 75 317 139 622 256 1225 112 577 165 837 220 1059 19
77 31 143 27 147 -5 3 -98 31 -208 62 -110 31 -456 128 -770 217 -313 89 -761
215 -995 281 -234 66 -430 121 -436 123 -7 3 -114 -303 -279 -802z"/>
</g>
</svg>
